<?xml version="1.0" standalone="no"?><!DOCTYPE svg PUBLIC "-//W3C//DTD SVG 1.1//EN" "http://www.w3.org/Graphics/SVG/1.1/DTD/svg11.dtd"><svg t="1663902596358" class="icon" style="width:20px;height:20px;" viewBox="0 0 1024 1024" version="1.1" xmlns="http://www.w3.org/2000/svg" p-id="4084" xmlns:xlink="http://www.w3.org/1999/xlink" width="1024" height="1024"><path d="M320 306.6c0 7.4-6 13.4-13.4 13.4l-101 0c-7.4 0-13.4-6-13.4-13.4l0-101c0-7.4 6-13.4 13.4-13.4l101 0c7.4 0 13.4 6 13.4 13.4L320 306.6z" p-id="4085"></path><path d="M576 306.6c0 7.4-6 13.4-13.4 13.4l-101 0c-7.4 0-13.4-6-13.4-13.4l0-101c0-7.4 6-13.4 13.4-13.4l101 0c7.4 0 13.4 6 13.4 13.4L576 306.6z" p-id="4086"></path><path d="M832 306.6c0 7.4-6 13.4-13.4 13.4l-101 0c-7.4 0-13.4-6-13.4-13.4l0-101c0-7.4 6-13.4 13.4-13.4l101 0c7.4 0 13.4 6 13.4 13.4L832 306.6z" p-id="4087"></path><path d="M320 562.6c0 7.4-6 13.4-13.4 13.4l-101 0c-7.4 0-13.4-6-13.4-13.4l0-101c0-7.4 6-13.4 13.4-13.4l101 0c7.4 0 13.4 6 13.4 13.4L320 562.6z" p-id="4088"></path><path d="M576 562.6c0 7.4-6 13.4-13.4 13.4l-101 0c-7.4 0-13.4-6-13.4-13.4l0-101c0-7.4 6-13.4 13.4-13.4l101 0c7.4 0 13.4 6 13.4 13.4L576 562.6z" p-id="4089"></path><path d="M832 562.6c0 7.4-6 13.4-13.4 13.4l-101 0c-7.4 0-13.4-6-13.4-13.4l0-101c0-7.4 6-13.4 13.4-13.4l101 0c7.4 0 13.4 6 13.4 13.4L832 562.6z" p-id="4090"></path><path d="M320 818.6c0 7.4-6 13.4-13.4 13.4l-101 0c-7.4 0-13.4-6-13.4-13.4l0-101c0-7.4 6-13.4 13.4-13.4l101 0c7.4 0 13.4 6 13.4 13.4L320 818.6z" p-id="4091"></path><path d="M576 818.6c0 7.4-6 13.4-13.4 13.4l-101 0c-7.4 0-13.4-6-13.4-13.4l0-101c0-7.4 6-13.4 13.4-13.4l101 0c7.4 0 13.4 6 13.4 13.4L576 818.6z" p-id="4092"></path><path d="M832 818.6c0 7.4-6 13.4-13.4 13.4l-101 0c-7.4 0-13.4-6-13.4-13.4l0-101c0-7.4 6-13.4 13.4-13.4l101 0c7.4 0 13.4 6 13.4 13.4L832 818.6z" p-id="4093"></path></svg>
